<?xml version="1.0" standalone="no"?>
<!DOCTYPE svg PUBLIC "-//W3C//DTD SVG 20010904//EN"
 "http://www.w3.org/TR/2001/REC-SVG-20010904/DTD/svg10.dtd">
<svg version="1.0" xmlns="http://www.w3.org/2000/svg"
 width="400.000000pt" height="400.000000pt" viewBox="0 0 400.000000 400.000000"
 preserveAspectRatio="xMidYMid meet">
<metadata>
Created by potrace 1.14, written by Peter Selinger 2001-2017
</metadata>
<g transform="translate(0.000000,400.000000) scale(0.100000,-0.100000)"
fill="#000000" stroke="none">
<path d="M1848 3995 c-1 -1 -35 -5 -73 -9 -251 -23 -582 -136 -810 -276 -194
-118 -443 -342 -550 -494 -11 -15 -25 -33 -30 -40 -30 -31 -122 -183 -169
-276 -106 -211 -174 -436 -203 -671 -12 -94 -8 -424 5 -499 6 -36 14 -83 18
-105 10 -68 51 -216 84 -305 68 -186 148 -330 303 -550 55 -78 278 -294 385
-373 129 -96 244 -164 384 -226 71 -32 254 -98 291 -105 12 -2 45 -10 72 -16
146 -34 250 -44 445 -45 152 0 279 8 312 20 7 2 31 7 53 9 22 3 40 5 40 6 0 1
9 3 20 5 67 13 184 48 270 80 311 115 579 301 810 560 35 39 195 252 195 259
0 3 17 34 38 68 66 111 112 216 162 367 38 115 65 227 75 312 3 24 8 55 11 69
10 41 12 369 3 448 -53 470 -246 871 -578 1203 -325 324 -676 497 -1166 575
-41 6 -391 15 -397 9z"/>
</g>
</svg>
